<svg width="33" height="33" viewBox="0 0 33 33" fill="none" xmlns="http://www.w3.org/2000/svg">
<g id="LinkedinLogo">
<g id="LinkedinLogo_2">
<path id="Vector" d="M26.9506 4.09863H6.78582C6.25121 4.09924 5.73867 4.31189 5.36064 4.68992C4.98261 5.06795 4.76996 5.58049 4.76935 6.11511V26.2799C4.76996 26.8145 4.98261 27.327 5.36064 27.7051C5.73867 28.0831 6.25121 28.2957 6.78582 28.2964H26.9506C27.4852 28.2957 27.9977 28.0831 28.3758 27.7051C28.7538 27.327 28.9665 26.8145 28.9671 26.2799V6.11511C28.9665 5.58049 28.7538 5.06795 28.3758 4.68992C27.9977 4.31189 27.4852 4.09924 26.9506 4.09863ZM12.8353 22.247C12.8353 22.5144 12.729 22.7709 12.5399 22.96C12.3509 23.1491 12.0944 23.2553 11.827 23.2553C11.5596 23.2553 11.3032 23.1491 11.1141 22.96C10.925 22.7709 10.8188 22.5144 10.8188 22.247V14.1811C10.8188 13.9137 10.925 13.6573 11.1141 13.4682C11.3032 13.2791 11.5596 13.1729 11.827 13.1729C12.0944 13.1729 12.3509 13.2791 12.5399 13.4682C12.729 13.6573 12.8353 13.9137 12.8353 14.1811V22.247ZM11.827 11.6605C11.5279 11.6605 11.2355 11.5718 10.9868 11.4057C10.7381 11.2395 10.5442 11.0033 10.4298 10.7269C10.3153 10.4506 10.2854 10.1465 10.3437 9.85314C10.4021 9.55977 10.5461 9.29029 10.7576 9.07878C10.9691 8.86728 11.2386 8.72324 11.532 8.66488C11.8253 8.60653 12.1294 8.63648 12.4058 8.75094C12.6821 8.86541 12.9183 9.05925 13.0845 9.30796C13.2507 9.55667 13.3394 9.84906 13.3394 10.1482C13.3394 10.5493 13.18 10.934 12.8964 11.2176C12.6128 11.5012 12.2281 11.6605 11.827 11.6605ZM23.9259 22.247C23.9259 22.5144 23.8197 22.7709 23.6306 22.96C23.4415 23.1491 23.185 23.2553 22.9176 23.2553C22.6502 23.2553 22.3938 23.1491 22.2047 22.96C22.0156 22.7709 21.9094 22.5144 21.9094 22.247V17.71C21.9094 17.0415 21.6438 16.4003 21.1711 15.9276C20.6984 15.4549 20.0573 15.1894 19.3888 15.1894C18.7203 15.1894 18.0792 15.4549 17.6065 15.9276C17.1338 16.4003 16.8682 17.0415 16.8682 17.71V22.247C16.8682 22.5144 16.762 22.7709 16.5729 22.96C16.3838 23.1491 16.1274 23.2553 15.86 23.2553C15.5926 23.2553 15.3361 23.1491 15.147 22.96C14.958 22.7709 14.8517 22.5144 14.8517 22.247V14.1811C14.8516 13.9333 14.9429 13.6941 15.108 13.5093C15.2731 13.3245 15.5006 13.207 15.7468 13.1792C15.9931 13.1515 16.241 13.2155 16.4431 13.359C16.6452 13.5024 16.7873 13.7153 16.8424 13.957C17.5242 13.4936 18.3195 13.2249 19.1426 13.1797C19.9658 13.1345 20.7857 13.3146 21.5142 13.7006C22.2427 14.0865 22.8521 14.6638 23.2771 15.3702C23.702 16.0767 23.9263 16.8856 23.9259 17.71V22.247Z" fill="white"/>
</g>
</g>
</svg>
