<svg width="221" height="218" viewBox="0 0 221 218" fill="none" xmlns="http://www.w3.org/2000/svg">
<path id="Vector" d="M110.25 0C49.501 0 0.25 48.8033 0.25 109C0.25 169.197 49.501 218 110.25 218C170.999 218 220.25 169.219 220.25 109C220.25 48.7807 170.988 0 110.25 0ZM155.045 109.147C151.581 111.631 147.627 113.359 143.445 114.217L142.761 114.352V143.801H121.041V112.828L117.668 112.038C113.589 111.1 109.373 110.14 105.623 109.915C104.792 109.881 103.96 109.892 103.128 109.96L102.33 110.028V167.051H80.6447V117.175L73.9442 121.895L61.4092 104.325L68.3832 99.3907C71.8474 96.9065 75.8016 95.1788 79.9838 94.3206L80.6675 94.1851V57.035H102.387V88.4715L103.276 88.4376C103.777 88.415 104.29 88.415 104.792 88.415C105.532 88.4037 106.273 88.4376 107.014 88.5166H107.082C111.447 88.7763 115.788 89.4313 120.039 90.4701L121.064 90.7185V56.8205H142.784V91.3622L149.484 86.6422L162.042 104.201L155.045 109.147Z" fill="url(#paint0_linear_0_2206)"/>
<defs>
<linearGradient id="paint0_linear_0_2206" x1="23.5571" y1="175.882" x2="203.921" y2="16.5432" gradientUnits="userSpaceOnUse">
<stop stop-color="#BEFBFF"/>
<stop offset="0.838542" stop-color="#59C4D1"/>
</linearGradient>
</defs>
</svg>
