<svg width="32" height="32" viewBox="0 0 32 32" fill="none" xmlns="http://www.w3.org/2000/svg">
<path id="Vector" d="M16 0.142597C7.16378 0.142597 0 7.24253 0 16C0 24.7575 7.16378 31.8574 16 31.8574C24.8362 31.8574 32 24.7607 32 16C32 7.23925 24.8346 0.142597 16 0.142597ZM22.5157 16.0214C22.0118 16.3828 21.4367 16.6341 20.8283 16.7589L20.7289 16.7787V21.0629H17.5697V16.5569L17.079 16.4419C16.4857 16.3055 15.8724 16.1659 15.327 16.1331C15.206 16.1281 15.0851 16.1298 14.9641 16.1396L14.848 16.1495V24.4453H11.6938V17.1893L10.7192 17.876L8.89589 15.3199L9.91029 14.602C10.4142 14.2406 10.9893 13.9893 11.5976 13.8644L11.6971 13.8447V8.44009H14.8563V13.0135L14.9856 13.0086C15.0585 13.0053 15.1331 13.0053 15.206 13.0053C15.3138 13.0036 15.4215 13.0086 15.5293 13.0201H15.5392C16.174 13.0578 16.8056 13.1531 17.4238 13.3043L17.573 13.3404V8.40888H20.7322V13.434L21.7068 12.7474L23.5334 15.3018L22.5157 16.0214Z" fill="#474747"/>
</svg>
