<svg width="32" height="32" viewBox="0 0 32 32" fill="none" xmlns="http://www.w3.org/2000/svg">
<g id="Target">
<g id="Target_2">
<path id="Vector" d="M16 16L28 4" stroke="white" stroke-width="2" stroke-linecap="round" stroke-linejoin="round"/>
<path id="Vector_2" d="M24.4853 7.51462C22.3596 5.39314 19.5151 4.14676 16.5145 4.02207C13.5139 3.89737 10.5758 4.90344 8.2814 6.84124C5.98704 8.77904 4.50356 11.5074 4.12445 14.4866C3.74535 17.4658 4.49823 20.4787 6.23415 22.9294C7.97007 25.38 10.5626 27.0899 13.4988 27.7207C16.435 28.3514 19.501 27.8572 22.0903 26.3357C24.6795 24.8142 26.6034 22.3763 27.4813 19.5043C28.3592 16.6322 28.1271 13.5353 26.831 10.8262" stroke="white" stroke-width="2" stroke-linecap="round" stroke-linejoin="round"/>
<path id="Vector_3" d="M20.2426 11.7575C19.2507 10.7656 17.9425 10.1526 16.5455 10.0251C15.1485 9.89759 13.751 10.2636 12.5959 11.0596C11.4407 11.8555 10.601 13.0311 10.2227 14.3819C9.84433 15.7327 9.95127 17.1734 10.5249 18.4536C11.0985 19.7337 12.1026 20.7724 13.3626 21.3891C14.6226 22.0058 16.0588 22.1615 17.4217 21.8291C18.7846 21.4968 19.9879 20.6974 20.8225 19.5699C21.6572 18.4424 22.0704 17.0581 21.9903 15.6576" stroke="white" stroke-width="2" stroke-linecap="round" stroke-linejoin="round"/>
</g>
</g>
</svg>
