<svg width="33" height="32" viewBox="0 0 33 32" fill="none" xmlns="http://www.w3.org/2000/svg">
<g id="InstagramLogo">
<g id="InstagramLogo_2">
<path id="Vector" d="M16.6 20C18.8091 20 20.6 18.2091 20.6 16C20.6 13.7909 18.8091 12 16.6 12C14.3908 12 12.6 13.7909 12.6 16C12.6 18.2091 14.3908 20 16.6 20Z" fill="white"/>
<path id="Vector_2" d="M22.1 3.5H11.1C9.24411 3.5021 7.46485 4.24027 6.15255 5.55257C4.84025 6.86487 4.10208 8.64413 4.09998 10.5V21.5C4.10208 23.3559 4.84025 25.1351 6.15255 26.4474C7.46485 27.7597 9.24411 28.4979 11.1 28.5H22.1C23.9558 28.4979 25.7351 27.7597 27.0474 26.4474C28.3597 25.1351 29.0979 23.3559 29.1 21.5V10.5C29.0979 8.64413 28.3597 6.86487 27.0474 5.55257C25.7351 4.24027 23.9558 3.5021 22.1 3.5ZM16.6 22C15.4133 22 14.2532 21.6481 13.2666 20.9888C12.2799 20.3295 11.5108 19.3925 11.0567 18.2961C10.6026 17.1997 10.4838 15.9933 10.7153 14.8295C10.9468 13.6656 11.5182 12.5965 12.3573 11.7574C13.1965 10.9182 14.2655 10.3468 15.4294 10.1153C16.5933 9.88378 17.7997 10.0026 18.8961 10.4567C19.9924 10.9108 20.9295 11.6799 21.5888 12.6666C22.2481 13.6533 22.6 14.8133 22.6 16C22.5982 17.5907 21.9655 19.1158 20.8406 20.2407C19.7158 21.3655 18.1907 21.9982 16.6 22ZM23.1 11C22.8033 11 22.5133 10.912 22.2666 10.7472C22.0199 10.5824 21.8277 10.3481 21.7142 10.074C21.6006 9.79994 21.5709 9.49834 21.6288 9.20736C21.6867 8.91639 21.8295 8.64912 22.0393 8.43934C22.2491 8.22956 22.5164 8.0867 22.8073 8.02882C23.0983 7.97094 23.3999 8.00065 23.674 8.11418C23.9481 8.22771 24.1824 8.41997 24.3472 8.66665C24.512 8.91332 24.6 9.20333 24.6 9.5C24.6 9.89782 24.4419 10.2794 24.1606 10.5607C23.8793 10.842 23.4978 11 23.1 11Z" fill="white"/>
</g>
</g>
</svg>
