<svg width="33" height="32" viewBox="0 0 33 32" fill="none" xmlns="http://www.w3.org/2000/svg">
<g id="LinkedinLogo">
<g id="LinkedinLogo_2">
<path id="Vector" d="M26.2 4H6.20001C5.66977 4.00061 5.16141 4.21151 4.78647 4.58646C4.41153 4.9614 4.20062 5.46975 4.20001 6V26C4.20062 26.5302 4.41153 27.0386 4.78647 27.4135C5.16141 27.7885 5.66977 27.9994 6.20001 28H26.2C26.7303 27.9994 27.2386 27.7885 27.6136 27.4135C27.9885 27.0386 28.1994 26.5302 28.2 26V6C28.1994 5.46975 27.9885 4.9614 27.6136 4.58646C27.2386 4.21151 26.7303 4.00061 26.2 4ZM12.2 22.0001C12.2 22.2653 12.0947 22.5197 11.9071 22.7072C11.7196 22.8948 11.4652 23.0001 11.2 23.0001C10.9348 23.0001 10.6804 22.8948 10.4929 22.7072C10.3054 22.5197 10.2 22.2653 10.2 22.0001V14.0001C10.2 13.7349 10.3054 13.4805 10.4929 13.293C10.6804 13.1055 10.9348 13.0001 11.2 13.0001C11.4652 13.0001 11.7196 13.1055 11.9071 13.293C12.0947 13.4805 12.2 13.7349 12.2 14.0001V22.0001ZM11.2 11.5001C10.9033 11.5001 10.6133 11.4121 10.3667 11.2473C10.12 11.0825 9.92772 10.8482 9.81419 10.5741C9.70066 10.3001 9.67096 9.99845 9.72883 9.70748C9.78671 9.41651 9.92957 9.14924 10.1394 8.93946C10.3491 8.72968 10.6164 8.58682 10.9074 8.52894C11.1983 8.47106 11.4999 8.50077 11.774 8.6143C12.0481 8.72783 12.2824 8.92009 12.4472 9.16676C12.612 9.41344 12.7 9.70345 12.7 10.0001C12.7 10.3979 12.542 10.7795 12.2607 11.0608C11.9794 11.3421 11.5978 11.5001 11.2 11.5001ZM23.2 22.0001C23.2 22.2653 23.0947 22.5197 22.9071 22.7072C22.7196 22.8948 22.4652 23.0001 22.2 23.0001C21.9348 23.0001 21.6804 22.8948 21.4929 22.7072C21.3054 22.5197 21.2 22.2653 21.2 22.0001V17.5001C21.2 16.8371 20.9366 16.2012 20.4678 15.7324C19.9989 15.2635 19.3631 15.0001 18.7 15.0001C18.037 15.0001 17.4011 15.2635 16.9322 15.7324C16.4634 16.2012 16.2 16.8371 16.2 17.5001V22.0001C16.2 22.2653 16.0947 22.5197 15.9071 22.7072C15.7196 22.8948 15.4652 23.0001 15.2 23.0001C14.9348 23.0001 14.6804 22.8948 14.4929 22.7072C14.3054 22.5197 14.2 22.2653 14.2 22.0001V14.0001C14.1999 13.7543 14.2904 13.5171 14.4542 13.3338C14.618 13.1504 14.8435 13.0339 15.0878 13.0064C15.3321 12.9789 15.5779 13.0423 15.7784 13.1847C15.9788 13.327 16.1198 13.5381 16.1744 13.7778C16.8507 13.3182 17.6394 13.0517 18.4559 13.0069C19.2723 12.9621 20.0855 13.1407 20.808 13.5235C21.5305 13.9063 22.135 14.4788 22.5565 15.1795C22.978 15.8801 23.2004 16.6825 23.2 17.5001V22.0001Z" fill="white"/>
</g>
</g>
</svg>
