<svg width="25" height="30" viewBox="0 0 25 30" fill="none" xmlns="http://www.w3.org/2000/svg">
<g id="Vector">
<path d="M18.3141 10.3583C20.1952 11.7047 22.4988 12.497 24.9869 12.497V8.72189C23.598 8.42559 22.3685 7.69864 21.4441 6.68751C19.8618 5.69851 18.7218 4.06692 18.3875 2.15725H14.8993V21.3127C14.8914 23.5458 13.0821 25.354 10.8508 25.354C9.53596 25.354 8.36785 24.7262 7.62805 23.7537C6.307 23.0859 5.40107 21.7149 5.40107 20.1315C5.40107 17.8922 7.21342 16.0766 9.4495 16.0766C9.87792 16.0766 10.2908 16.1434 10.6782 16.2665V12.4502C5.87628 12.5496 2.01438 16.4795 2.01438 21.3128C2.01438 23.7255 2.97608 25.9127 4.53693 27.5109C5.94505 28.4579 7.64015 29.0103 9.46389 29.0103C14.3518 29.0103 18.3142 25.0414 18.3142 20.1455V10.3583H18.3141Z" fill="white"/>
<path d="M24.9869 8.72189L24.9869 7.70114C23.7345 7.70305 22.5067 7.35175 21.4441 6.68741C22.3847 7.71888 23.6233 8.43009 24.9869 8.72189ZM18.3875 2.15725C18.3556 1.97473 18.3311 1.79102 18.3141 1.6066V0.989746H13.4979V20.1454C13.4902 22.3782 11.681 24.1864 9.4495 24.1864C8.79437 24.1864 8.17583 24.0306 7.62805 23.7538C8.36785 24.7262 9.53596 25.3539 10.8508 25.3539C13.0819 25.3539 14.8915 23.5459 14.8993 21.3128L14.8993 2.15725H18.3875ZM10.6784 12.4502V11.3635C10.276 11.3084 9.87022 11.2808 9.46399 11.281C4.57572 11.2809 0.613159 15.2498 0.613159 20.1454C0.613159 23.2146 2.17051 25.9196 4.53703 27.5107C2.97618 25.9126 2.01448 23.7253 2.01448 21.3127C2.01448 16.4795 5.87628 12.5496 10.6784 12.4502Z" fill="white"/>
</g>
</svg>
