<svg width="33" height="32" viewBox="0 0 33 32" fill="none" xmlns="http://www.w3.org/2000/svg">
<g id="TwitterLogo">
<g id="TwitterLogo_2">
<path id="Vector" d="M31.1072 9.70702L27.3943 13.4198C27.2945 17.0894 25.8939 20.6683 23.5166 23.2958C20.7322 26.3733 16.8882 27.9999 12.4 27.9999C8.03599 27.9999 5.78648 25.8006 5.69285 25.707C5.56495 25.5791 5.47413 25.4189 5.43009 25.2434C5.38605 25.068 5.39042 24.8839 5.44274 24.7107C5.49507 24.5375 5.59338 24.3818 5.72722 24.2601C5.86106 24.1384 6.0254 24.0553 6.20274 24.0196C7.27 23.8034 9.91917 22.9614 11.0465 21.4439C9.83781 20.7469 8.76453 19.838 7.87803 18.7606C4.74156 14.952 4.80803 10.1656 5.41612 6.82103C5.45045 6.63223 5.53838 6.4573 5.66941 6.31711C5.80044 6.17691 5.96903 6.07738 6.15508 6.03038C6.34113 5.98338 6.53678 5.9909 6.71867 6.05205C6.90056 6.1132 7.06101 6.22539 7.18089 6.37523C7.21526 6.41796 10.5019 10.4446 15.4 11.7601V11.0003C15.4105 9.39906 16.0565 7.86754 17.1959 6.74243C18.3353 5.61732 19.8748 4.99071 21.4761 5.00035C22.5162 5.01476 23.5348 5.29869 24.4324 5.82442C25.3299 6.35016 26.0758 7.09971 26.5971 7.99987L30.4 7.99993C30.5978 7.99993 30.7911 8.05857 30.9556 8.16845C31.12 8.27833 31.2482 8.4345 31.3239 8.61723C31.3996 8.79995 31.4194 9.00101 31.3808 9.19499C31.3422 9.38897 31.247 9.56716 31.1072 9.70702Z" fill="white"/>
</g>
</g>
</svg>
