<svg width="16" height="16" viewBox="0 0 16 16" fill="none" xmlns="http://www.w3.org/2000/svg">
<g id="Iconly/Light-Outline/Calling">
<g id="Calling">
<g id="Group 3">
<mask id="mask0_206_372" style="mask-type:luminance" maskUnits="userSpaceOnUse" x="9" y="1" width="7" height="7">
<path id="Clip 2" fill-rule="evenodd" clip-rule="evenodd" d="M9.56927 1.33301H15.2619V7.02155H9.56927V1.33301Z" fill="white"/>
</mask>
<g mask="url(#mask0_206_372)">
<path id="Fill 1" fill-rule="evenodd" clip-rule="evenodd" d="M14.7617 7.02155C14.5104 7.02155 14.2944 6.83288 14.2657 6.57755C14.0131 4.32688 12.2651 2.58022 10.0137 2.33022C9.73974 2.29955 9.54174 2.05288 9.57241 1.77822C9.60241 1.50422 9.84707 1.30222 10.1244 1.33688C12.8431 1.63888 14.9544 3.74755 15.2591 6.46555C15.2897 6.74022 15.0924 6.98755 14.8184 7.01822C14.7997 7.02022 14.7804 7.02155 14.7617 7.02155Z" fill="#292929"/>
</g>
</g>
<path id="Fill 4" fill-rule="evenodd" clip-rule="evenodd" d="M12.4017 7.02878C12.167 7.02878 11.9583 6.86345 11.9117 6.62478C11.7197 5.63812 10.959 4.87745 9.97365 4.68612C9.70232 4.63345 9.52565 4.37145 9.57832 4.10012C9.63098 3.82878 9.89765 3.65145 10.1643 3.70478C11.5517 3.97412 12.623 5.04478 12.893 6.43278C12.9457 6.70478 12.769 6.96678 12.4983 7.01945C12.4657 7.02545 12.4337 7.02878 12.4017 7.02878Z" fill="#292929"/>
<g id="Group 8">
<mask id="mask1_206_372" style="mask-type:luminance" maskUnits="userSpaceOnUse" x="1" y="1" width="15" height="14">
<path id="Clip 7" fill-rule="evenodd" clip-rule="evenodd" d="M1.33356 1.33301H15.0004V15H1.33356V1.33301Z" fill="white"/>
</mask>
<g mask="url(#mask1_206_372)">
<path id="Fill 6" fill-rule="evenodd" clip-rule="evenodd" d="M2.90629 3.37404C2.90762 3.37404 2.87429 3.40871 2.83229 3.45004C2.67096 3.60671 2.33696 3.93271 2.33362 4.61471C2.32829 5.56871 2.95562 7.34004 5.97629 10.36C8.98229 13.3654 10.751 14 11.7076 14H11.7216C12.4036 13.996 12.729 13.662 12.8856 13.5014C12.933 13.4527 12.9716 13.416 12.999 13.394C13.6636 12.7254 14.0036 12.2287 14.0003 11.9094C13.9963 11.584 13.5916 11.2 13.0323 10.6674C12.8543 10.4987 12.661 10.314 12.457 10.11C11.9276 9.58271 11.667 9.67271 11.0903 9.87537C10.2936 10.1547 9.20229 10.5374 7.50163 8.83537C5.80029 7.13471 6.18162 6.04337 6.45962 5.24604C6.66096 4.67004 6.75296 4.40804 6.22429 3.87871C6.01762 3.67204 5.83162 3.47604 5.66029 3.29604C5.13096 2.74004 4.74896 2.33804 4.42562 2.33337H4.42029C4.10096 2.33337 3.60496 2.67471 2.90296 3.37671C2.90496 3.37471 2.90562 3.37404 2.90629 3.37404ZM11.7076 15C10.0463 15 7.88028 13.6774 5.26961 11.0674C2.64828 8.4467 1.32361 6.27403 1.33361 4.60937C1.33961 3.50937 1.91628 2.94603 2.13295 2.7347C2.14428 2.7207 2.18295 2.6827 2.19628 2.66937C3.15295 1.7127 3.81028 1.31937 4.43828 1.33337C5.18295 1.34337 5.71361 1.90137 6.38495 2.60737C6.55095 2.78137 6.73028 2.97137 6.93095 3.17137C7.90361 4.1447 7.62695 4.9387 7.40361 5.57603C7.16095 6.27137 6.95095 6.87137 8.20828 8.1287C9.46561 9.38603 10.0649 9.17603 10.7596 8.93137C11.3976 8.7087 12.1896 8.43003 13.1643 9.40337C13.3623 9.60137 13.5489 9.7787 13.7223 9.94337C14.4309 10.618 14.9909 11.1507 15.0003 11.8974C15.0076 12.5334 14.6209 13.1827 13.6663 14.1374L13.2436 13.8507L13.6016 14.1994C13.3903 14.416 12.8283 14.9934 11.7276 15H11.7076Z" fill="#292929"/>
</g>
</g>
</g>
</g>
</svg>
